# Blender v2.79 (sub 0) OBJ File: 'Spaceship.blend'
# www.blender.org
mtllib Spaceship.mtl
o Cube
v -2.422511 0.285903 -1.587841
v -2.000000 0.439975 0.999999
v -2.422510 2.285903 -1.587842
v -2.000000 2.055521 1.000000
v -2.000001 0.753501 2.749002
v -2.000001 1.513128 2.749002
v -1.483377 0.753501 4.210165
v -1.483376 1.513128 4.210165
v -2.992255 0.285904 -1.000001
v -3.463462 0.956082 3.210122
v -2.992254 1.719087 -1.000001
v -3.463462 1.091652 3.210122
v -4.024039 0.285904 -1.000001
v -3.552832 0.956082 3.210122
v -4.024038 1.719087 -1.000002
v -3.552832 1.091652 3.210122
v -4.416077 0.742421 -0.982350
v -4.307603 0.742421 0.983025
v -4.416077 1.262570 -0.982350
v -4.307602 1.262570 0.983025
v -1.999999 0.285903 -2.428362
v -1.999999 2.285903 -2.428362
v -0.999999 2.285903 -2.428361
v -1.999999 1.285903 -2.428362
v -1.000000 0.285903 -2.428362
v -0.500000 2.285903 -2.428361
v -1.999999 1.785903 -2.428362
v -0.500000 0.285903 -2.428362
v -1.499999 2.285903 -2.428362
v -1.999999 0.785903 -2.428362
v -1.500000 0.285903 -2.428362
v -0.596134 1.285903 -3.529796
v -1.403865 1.285903 -3.529797
v -1.000000 0.882038 -3.529796
v -0.999999 1.689769 -3.529796
v -1.403865 1.689769 -3.601439
v -1.403865 0.882038 -3.601439
v -0.596134 0.882038 -3.601439
v -0.596134 1.689769 -3.601439
v -1.499999 1.785903 -4.019523
v -0.999999 1.785903 -3.947880
v -1.499999 1.285903 -3.947881
v -1.499999 0.785903 -4.019524
v -0.999999 0.785903 -3.947880
v -0.500000 0.785903 -4.019523
v -0.500000 1.285903 -3.947880
v -0.500000 1.785903 -4.019523
v -1.454878 1.740782 -4.019523
v -0.999999 1.740782 -3.947880
v -1.454878 1.285903 -3.947881
v -1.454878 0.831024 -4.019524
v -0.999999 0.831024 -3.947880
v -0.545121 0.831024 -4.019523
v -0.545121 1.285903 -3.947880
v -0.545121 1.740782 -4.019523
v -4.523049 1.002496 -0.950509
v -4.631503 0.832553 -0.021443
v -4.411285 1.002496 0.983025
v -4.581729 1.213459 -0.000001
v -4.913832 1.002496 -0.000001
v -4.548267 0.826693 0.765437
v -4.548267 1.178299 0.765437
v -4.653772 1.002496 0.798617
v -4.598028 0.826693 -0.730887
v -4.598028 1.178299 -0.730888
v -4.711543 1.002496 -0.700046
v -2.992255 0.285904 0.999999
v -2.992255 1.719087 0.999999
v -4.024039 0.285904 0.999999
v -4.024039 1.719087 0.999999
v -3.074669 0.368318 1.077764
v -3.074669 1.636673 1.077764
v -3.941625 0.368318 1.077763
v -3.941625 1.636673 1.077764
v -3.197900 0.491548 1.248499
v -3.197900 1.513442 1.248500
v -3.818394 0.491549 1.248499
v -3.818394 1.513442 1.248499
v -3.266178 0.559826 1.415233
v -3.266177 1.445164 1.415233
v -3.750117 0.559826 1.415233
v -3.750116 1.445164 1.415233
v -3.359333 0.834495 2.437061
v -3.359333 1.213238 2.437061
v -3.656962 0.834495 2.437061
v -3.656961 1.213238 2.437061
v -3.429694 0.904856 2.437061
v -3.429694 1.142877 2.437061
v -3.586601 0.904856 2.437061
v -3.586601 1.142877 2.437061
v -3.463462 0.956082 3.381806
v -3.463462 1.091652 3.381806
v -3.552832 0.956082 3.381806
v -3.552832 1.091652 3.381806
v -3.429694 0.904856 3.606454
v -3.429694 1.142877 3.606454
v -3.586601 0.904856 3.606454
v -3.586601 1.142877 3.606454
v -1.612279 0.285903 1.000000
v -1.952881 0.285903 -1.473882
v -1.276397 0.753500 5.256796
v -1.276397 1.513127 5.256797
v -1.146513 0.753500 5.901192
v -1.146513 1.379264 5.901193
v -0.330810 0.948817 6.537256
v -1.952881 2.285903 -1.473882
v -1.612279 2.285903 1.000000
v -1.612280 0.599429 2.749002
v -1.612279 1.811032 2.749002
v -1.195808 0.599429 4.142553
v -1.195808 1.743509 4.178465
v -1.028954 1.743509 5.256797
v -1.028954 0.599429 5.256796
v -0.924249 1.609646 5.901193
v -0.924250 0.599428 5.901192
v -0.266679 1.151109 6.537256
v -0.266680 0.700203 6.537256
v 2.422511 0.285903 -1.587841
v 0.000000 0.285903 -1.000000
v -0.000000 0.285903 1.000000
v 2.000000 0.439975 1.000000
v 2.422511 2.285903 -1.587841
v 0.000000 2.285903 -0.999999
v -0.000000 2.285903 1.000000
v 2.000000 2.055521 1.000000
v -0.000000 0.599429 2.749002
v 2.000001 0.753501 2.749002
v -0.000000 2.091815 2.749003
v 2.000000 1.513128 2.749003
v -0.000000 0.599429 3.861399
v 1.483376 0.753501 4.210165
v -0.000000 1.743509 4.046648
v 1.483375 1.513128 4.210165
v 2.992255 0.285904 -1.000000
v 3.463462 0.956082 3.210123
v 2.992254 1.719087 -1.000001
v 3.463462 1.091652 3.210123
v 4.024039 0.285904 -1.000000
v 3.552831 0.956082 3.210123
v 4.024038 1.719087 -1.000001
v 3.552831 1.091652 3.210123
v 4.416077 0.742421 -0.982349
v 4.307603 0.742421 0.983025
v 4.416077 1.262570 -0.982349
v 4.307602 1.262570 0.983026
v -0.000000 0.599429 5.256797
v 0.000000 0.285903 -2.428362
v 2.000000 0.285903 -2.428361
v 1.999999 2.285903 -2.428362
v 0.000000 2.285903 -2.428361
v 1.000000 2.285903 -2.428361
v 0.000000 1.285903 -2.428361
v 2.000000 1.285903 -2.428362
v 1.000000 0.285903 -2.428362
v 0.500000 2.285903 -2.428361
v 0.000000 1.785903 -2.428361
v 2.000000 1.785903 -2.428362
v 0.500000 0.285903 -2.428362
v 1.500000 2.285903 -2.428362
v 0.000000 0.785903 -2.428361
v 2.000000 0.785903 -2.428362
v 1.500000 0.285903 -2.428362
v 0.596134 1.285903 -3.529796
v 1.403865 1.285903 -3.529797
v 1.000000 0.882038 -3.529796
v 1.000000 1.689769 -3.529796
v 1.403865 1.689769 -3.601439
v 1.403865 0.882038 -3.601439
v 0.596135 0.882038 -3.601439
v 0.596134 1.689769 -3.601439
v 1.500000 1.785903 -4.019523
v 1.000000 1.785903 -3.947880
v 1.500000 1.285903 -3.947881
v 1.500000 0.785903 -4.019524
v 1.000000 0.785903 -3.947880
v 0.500000 0.785903 -4.019523
v 0.500000 1.285903 -3.947880
v 0.500000 1.785903 -4.019523
v 1.454879 1.740782 -4.019523
v 1.000000 1.740782 -3.947880
v 1.454879 1.285903 -3.947881
v 1.454879 0.831024 -4.019524
v 1.000000 0.831024 -3.947880
v 0.545121 0.831024 -4.019523
v 0.545121 1.285903 -3.947880
v 0.545121 1.740782 -4.019523
v 4.523049 1.002496 -0.950508
v 4.631503 0.832553 -0.021443
v 4.411285 1.002496 0.983026
v 4.581729 1.213459 -0.000001
v 4.913832 1.002496 -0.000001
v 4.548267 0.826693 0.765437
v 4.548267 1.178299 0.765438
v 4.653772 1.002496 0.798617
v 4.598028 0.826693 -0.730887
v 4.598028 1.178299 -0.730887
v 4.711543 1.002496 -0.700045
v 2.992255 0.285904 0.999999
v 2.992255 1.719087 1.000000
v 4.024039 0.285904 0.999999
v 4.024039 1.719087 1.000000
v 3.074669 0.368318 1.077764
v 3.074669 1.636673 1.077764
v 3.941625 0.368318 1.077764
v 3.941625 1.636673 1.077764
v 3.197900 0.491548 1.248500
v 3.197900 1.513442 1.248500
v 3.818394 0.491549 1.248500
v 3.818394 1.513442 1.248500
v 3.266178 0.559826 1.415234
v 3.266177 1.445164 1.415234
v 3.750117 0.559826 1.415233
v 3.750116 1.445164 1.415234
v 3.359333 0.834495 2.437062
v 3.359332 1.213238 2.437062
v 3.656961 0.834495 2.437062
v 3.656961 1.213238 2.437062
v 3.429693 0.904856 2.437062
v 3.429693 1.142877 2.437062
v 3.586600 0.904856 2.437062
v 3.586600 1.142877 2.437062
v 3.463462 0.956082 3.381806
v 3.463462 1.091652 3.381806
v 3.552831 0.956082 3.381806
v 3.552831 1.091652 3.381806
v 3.429693 0.904856 3.606454
v 3.429693 1.142877 3.606454
v 3.586600 0.904856 3.606454
v 3.586600 1.142877 3.606454
v 1.612279 0.285903 1.000000
v 1.952881 0.285903 -1.473882
v -0.000000 1.743509 5.256797
v 1.276397 0.753500 5.256796
v 1.276396 1.513127 5.256797
v -0.000000 0.599428 5.901193
v -0.000000 1.609646 5.901193
v 1.146513 0.753500 5.901192
v 1.146512 1.379264 5.901193
v -0.000000 0.700203 6.537256
v -0.000000 1.151109 6.537257
v 0.330809 0.948817 6.537256
v 1.952881 2.285903 -1.473882
v 1.612278 2.285903 1.000000
v 1.612279 0.599429 2.749002
v 1.612279 1.811032 2.749003
v 1.195807 0.599429 4.142553
v 1.195807 1.743509 4.178465
v 1.028953 1.743509 5.256797
v 1.028953 0.599429 5.256796
v 0.924248 1.609646 5.901193
v 0.924249 0.599428 5.901192
v 0.266678 1.151109 6.537256
v 0.266679 0.700203 6.537256
vn 0.0000 -1.0000 -0.0000
vn 0.0000 1.0000 0.0000
vn -0.5474 0.8036 0.2337
vn -0.4737 0.8763 0.0876
vn -0.9428 0.0000 0.3333
vn -1.0000 0.0000 -0.0000
vn -0.0000 -0.9843 0.1764
vn -0.6445 0.7562 0.1134
vn -0.5962 0.7747 0.2106
vn -0.0000 -0.0000 1.0000
vn 0.1069 -0.9940 0.0235
vn -0.7181 0.0000 -0.6960
vn -0.0545 -0.0000 0.9985
vn 0.0000 -0.0000 -1.0000
vn -0.6336 -0.3563 0.6868
vn -0.6989 -0.7149 0.0209
vn -0.7007 0.7131 0.0209
vn -0.0620 -0.0000 -0.9981
vn 0.6462 0.6462 -0.4061
vn -0.9803 0.0000 0.1976
vn -0.9810 0.0000 0.1940
vn -0.8935 0.0000 -0.4491
vn 0.9518 0.0219 -0.3060
vn 0.0219 0.9518 -0.3060
vn -0.9518 -0.0219 -0.3060
vn -0.6462 0.6462 -0.4061
vn 0.0219 -0.9518 -0.3060
vn -0.6462 -0.6462 -0.4061
vn -0.9518 0.0219 -0.3060
vn 0.6462 -0.6462 -0.4061
vn -0.0219 -0.9518 -0.3060
vn 0.9518 -0.0219 -0.3060
vn -0.0219 0.9518 -0.3060
vn 0.1480 0.0740 -0.9862
vn -0.0740 -0.1480 -0.9862
vn 0.1480 -0.0740 -0.9862
vn -0.0740 0.1480 -0.9862
vn -0.1480 -0.0740 -0.9862
vn 0.0740 0.1480 -0.9862
vn -0.1480 0.0740 -0.9862
vn 0.0740 -0.1480 -0.9862
vn 0.0204 -0.9923 -0.1223
vn 0.9923 -0.0204 -0.1223
vn 0.0204 0.9923 -0.1223
vn 0.9923 0.0204 -0.1223
vn -0.0204 0.9923 -0.1223
vn -0.9923 0.0204 -0.1223
vn -0.0204 -0.9923 -0.1223
vn -0.9923 -0.0204 -0.1223
vn -0.6336 0.3563 0.6868
vn -0.6560 0.7476 -0.1036
vn -0.6620 -0.7417 -0.1077
vn -0.6499 0.7472 0.1388
vn -0.6482 -0.7489 0.1376
vn -0.7867 -0.3222 -0.5265
vn -0.7867 0.3222 -0.5265
vn 0.6863 -0.0000 0.7273
vn -0.6863 0.0000 0.7273
vn -0.0000 0.6863 0.7273
vn -0.0000 -0.6863 0.7273
vn 0.8109 -0.0000 0.5852
vn -0.8109 0.0000 0.5852
vn -0.0000 0.8109 0.5852
vn -0.0000 -0.8109 0.5852
vn 0.9254 -0.0000 0.3790
vn -0.9254 0.0000 0.3790
vn -0.0000 0.9254 0.3790
vn -0.0000 -0.9254 0.3790
vn 0.9959 -0.0000 0.0908
vn -0.9959 0.0000 0.0908
vn 0.0000 0.9752 0.2213
vn -0.0000 -0.9657 0.2596
vn 0.9990 0.0000 0.0436
vn -0.9990 0.0000 0.0436
vn 0.0000 0.9978 0.0661
vn -0.0000 -0.9978 0.0661
vn 0.0000 0.9750 -0.2223
vn 1.0000 0.0000 0.0000
vn 0.9889 0.0000 -0.1486
vn -0.0000 -0.9750 -0.2223
vn -0.9889 0.0000 -0.1486
vn -0.0000 -0.9877 0.1565
vn -0.6751 0.6882 0.2658
vn -0.4960 0.3283 0.8039
vn -0.6149 -0.0000 0.7886
vn -0.0000 0.8112 0.5848
vn -0.5458 -0.8320 0.0994
vn -0.0000 0.9791 0.2034
vn -0.5540 -0.3940 0.7333
vn -0.4892 -0.8680 0.0846
vn -0.0905 0.9824 0.1636
vn -0.4007 -0.9068 0.1310
vn -0.3643 -0.9167 0.1643
vn -0.0852 0.9786 0.1872
vn -0.2690 0.9594 0.0842
vn -0.1840 -0.9812 0.0576
vn 0.5474 0.8036 0.2337
vn 0.4737 0.8763 0.0876
vn 0.9428 0.0000 0.3333
vn 0.6445 0.7562 0.1134
vn 0.5962 0.7747 0.2106
vn -0.1069 -0.9940 0.0235
vn 0.7181 0.0000 -0.6960
vn 0.0545 -0.0000 0.9985
vn 0.6336 -0.3563 0.6868
vn 0.6989 -0.7149 0.0209
vn 0.7007 0.7131 0.0209
vn 0.0620 -0.0000 -0.9981
vn 0.9803 0.0000 0.1976
vn 0.9810 0.0000 0.1940
vn 0.8935 0.0000 -0.4491
vn 0.6336 0.3563 0.6868
vn 0.6560 0.7476 -0.1036
vn 0.6620 -0.7417 -0.1077
vn 0.6499 0.7472 0.1388
vn 0.6482 -0.7489 0.1376
vn 0.7867 -0.3222 -0.5265
vn 0.7867 0.3222 -0.5265
vn 0.6751 0.6882 0.2658
vn 0.4960 0.3283 0.8039
vn 0.6149 -0.0000 0.7886
vn 0.5458 -0.8320 0.0994
vn 0.5540 -0.3940 0.7333
vn 0.4892 -0.8680 0.0846
vn 0.0905 0.9824 0.1636
vn 0.4007 -0.9068 0.1310
vn 0.3643 -0.9167 0.1643
vn 0.0852 0.9786 0.1872
vn 0.2690 0.9594 0.0842
vn 0.1840 -0.9812 0.0576
usemtl Material
s off
f 100//1 119//1 120//1 99//1
f 106//2 107//2 124//2 123//2
f 119//1 100//1 1//1 21//1 31//1 25//1 28//1 147//1
f 107//3 4//3 6//3 109//3
f 4//4 3//4 11//4 68//4
f 6//5 5//5 7//5 8//5
f 4//6 2//6 5//6 6//6
f 99//7 120//7 126//7 108//7
f 111//8 8//8 102//8 112//8
f 108//1 126//1 130//1 110//1
f 109//9 6//9 8//9 111//9
f 68//2 11//2 15//2 70//2
f 2//10 4//10 68//10 67//10
f 1//11 2//11 67//11 9//11
f 3//12 1//12 9//12 11//12
f 69//13 70//13 20//13 58//13 18//13
f 11//14 9//14 13//14 15//14
f 14//1 10//1 91//1 93//1
f 9//1 67//1 69//1 13//1
f 63//15 61//15 18//15 58//15
f 13//16 69//16 18//16 61//16 57//16 64//16 17//16
f 70//17 15//17 19//17 65//17 59//17 62//17 20//17
f 15//18 13//18 17//18 56//18 19//18
f 47//19 26//19 150//19 156//19
f 102//20 101//20 103//20 104//20
f 8//21 7//21 101//21 102//21
f 110//1 130//1 146//1 113//1
f 3//2 106//2 123//2 150//2 26//2 23//2 29//2 22//2
f 1//22 3//22 22//22 27//22 24//22 30//22 21//22
f 45//23 46//23 152//23 160//23
f 40//24 29//24 23//24 41//24
f 24//25 27//25 40//25 42//25
f 27//26 22//26 29//26 40//26
f 31//27 43//27 44//27 25//27
f 21//28 30//28 43//28 31//28
f 30//29 24//29 42//29 43//29
f 28//30 45//30 160//30 147//30
f 25//31 44//31 45//31 28//31
f 46//32 47//32 156//32 152//32
f 33//14 36//14 35//14 39//14 32//14 38//14 34//14 37//14
f 41//33 23//33 26//33 47//33
f 49//34 48//34 40//34 41//34
f 48//35 50//35 42//35 40//35
f 51//36 52//36 44//36 43//36
f 50//37 51//37 43//37 42//37
f 52//38 53//38 45//38 44//38
f 53//39 54//39 46//39 45//39
f 55//40 49//40 41//40 47//40
f 54//41 55//41 47//41 46//41
f 35//42 36//42 48//42 49//42
f 36//43 33//43 50//43 48//43
f 37//44 34//44 52//44 51//44
f 33//45 37//45 51//45 50//45
f 34//46 38//46 53//46 52//46
f 38//47 32//47 54//47 53//47
f 39//48 35//48 49//48 55//48
f 32//49 39//49 55//49 54//49
f 62//50 63//50 58//50 20//50
f 65//51 66//51 60//51 59//51
f 66//52 64//52 57//52 60//52
f 59//53 60//53 63//53 62//53
f 60//54 57//54 61//54 63//54
f 56//55 17//55 64//55 66//55
f 19//56 56//56 66//56 65//56
f 72//57 71//57 67//57 68//57
f 73//58 74//58 70//58 69//58
f 74//59 72//59 68//59 70//59
f 71//60 73//60 69//60 67//60
f 76//61 75//61 71//61 72//61
f 77//62 78//62 74//62 73//62
f 78//63 76//63 72//63 74//63
f 75//64 77//64 73//64 71//64
f 80//65 79//65 75//65 76//65
f 81//66 82//66 78//66 77//66
f 82//67 80//67 76//67 78//67
f 79//68 81//68 77//68 75//68
f 84//69 83//69 79//69 80//69
f 85//70 86//70 82//70 81//70
f 86//71 84//71 80//71 82//71
f 83//72 85//72 81//72 79//72
f 88//10 87//10 83//10 84//10
f 89//10 90//10 86//10 85//10
f 90//10 88//10 84//10 86//10
f 87//10 89//10 85//10 83//10
f 12//73 10//73 87//73 88//73
f 14//74 16//74 90//74 89//74
f 16//75 12//75 88//75 90//75
f 10//76 14//76 89//76 87//76
f 92//77 94//77 98//77 96//77
f 16//6 14//6 93//6 94//6
f 12//2 16//2 94//2 92//2
f 10//78 12//78 92//78 91//78
f 96//10 98//10 97//10 95//10
f 91//79 92//79 96//79 95//79
f 93//80 91//80 95//80 97//80
f 94//81 93//81 97//81 98//81
f 115//82 235//82 239//82 117//82
f 112//83 102//83 104//83 114//83
f 113//1 146//1 235//1 115//1
f 116//10 105//10 117//10
f 114//84 104//84 105//84 116//84
f 104//85 103//85 105//85
f 236//86 114//86 116//86 240//86
f 240//10 116//10 117//10 239//10
f 101//87 113//87 115//87 103//87
f 232//88 112//88 114//88 236//88
f 103//89 115//89 117//89 105//89
f 7//90 110//90 113//90 101//90
f 128//91 109//91 111//91 132//91
f 5//92 108//92 110//92 7//92
f 132//2 111//2 112//2 232//2
f 2//93 99//93 108//93 5//93
f 124//94 107//94 109//94 128//94
f 3//95 4//95 107//95 106//95
f 1//96 100//96 99//96 2//96
f 231//1 230//1 120//1 119//1
f 242//2 123//2 124//2 243//2
f 119//1 147//1 158//1 154//1 162//1 148//1 118//1 231//1
f 243//97 245//97 129//97 125//97
f 125//98 199//98 136//98 122//98
f 129//99 133//99 131//99 127//99
f 125//78 129//78 127//78 121//78
f 230//7 244//7 126//7 120//7
f 247//100 248//100 234//100 133//100
f 244//1 246//1 130//1 126//1
f 245//101 247//101 133//101 129//101
f 199//2 201//2 140//2 136//2
f 121//10 198//10 199//10 125//10
f 118//102 134//102 198//102 121//102
f 122//103 136//103 134//103 118//103
f 200//104 143//104 189//104 145//104 201//104
f 136//14 140//14 138//14 134//14
f 139//1 224//1 222//1 135//1
f 134//1 138//1 200//1 198//1
f 194//105 189//105 143//105 192//105
f 138//106 142//106 195//106 188//106 192//106 143//106 200//106
f 201//107 145//107 193//107 190//107 196//107 144//107 140//107
f 140//108 144//108 187//108 142//108 138//108
f 178//26 156//26 150//26 155//26
f 234//109 238//109 237//109 233//109
f 133//110 234//110 233//110 131//110
f 246//1 249//1 146//1 130//1
f 122//2 149//2 159//2 151//2 155//2 150//2 123//2 242//2
f 118//111 148//111 161//111 153//111 157//111 149//111 122//111
f 176//29 160//29 152//29 177//29
f 171//33 172//33 151//33 159//33
f 153//32 173//32 171//32 157//32
f 157//19 171//19 159//19 149//19
f 162//31 154//31 175//31 174//31
f 148//30 162//30 174//30 161//30
f 161//23 174//23 173//23 153//23
f 158//28 147//28 160//28 176//28
f 154//27 158//27 176//27 175//27
f 177//25 152//25 156//25 178//25
f 164//14 168//14 165//14 169//14 163//14 170//14 166//14 167//14
f 172//24 178//24 155//24 151//24
f 180//40 172//40 171//40 179//40
f 179//41 171//41 173//41 181//41
f 182//38 174//38 175//38 183//38
f 181//39 173//39 174//39 182//39
f 183//36 175//36 176//36 184//36
f 184//37 176//37 177//37 185//37
f 186//34 178//34 172//34 180//34
f 185//35 177//35 178//35 186//35
f 166//48 180//48 179//48 167//48
f 167//49 179//49 181//49 164//49
f 168//46 182//46 183//46 165//46
f 164//47 181//47 182//47 168//47
f 165//44 183//44 184//44 169//44
f 169//45 184//45 185//45 163//45
f 170//42 186//42 180//42 166//42
f 163//43 185//43 186//43 170//43
f 193//112 145//112 189//112 194//112
f 196//113 190//113 191//113 197//113
f 197//114 191//114 188//114 195//114
f 190//115 193//115 194//115 191//115
f 191//116 194//116 192//116 188//116
f 187//117 197//117 195//117 142//117
f 144//118 196//118 197//118 187//118
f 203//58 199//58 198//58 202//58
f 204//57 200//57 201//57 205//57
f 205//59 201//59 199//59 203//59
f 202//60 198//60 200//60 204//60
f 207//62 203//62 202//62 206//62
f 208//61 204//61 205//61 209//61
f 209//63 205//63 203//63 207//63
f 206//64 202//64 204//64 208//64
f 211//66 207//66 206//66 210//66
f 212//65 208//65 209//65 213//65
f 213//67 209//67 207//67 211//67
f 210//68 206//68 208//68 212//68
f 215//70 211//70 210//70 214//70
f 216//69 212//69 213//69 217//69
f 217//71 213//71 211//71 215//71
f 214//72 210//72 212//72 216//72
f 219//10 215//10 214//10 218//10
f 220//10 216//10 217//10 221//10
f 221//10 217//10 215//10 219//10
f 218//10 214//10 216//10 220//10
f 137//74 219//74 218//74 135//74
f 139//73 220//73 221//73 141//73
f 141//75 221//75 219//75 137//75
f 135//76 218//76 220//76 139//76
f 223//77 227//77 229//77 225//77
f 141//78 225//78 224//78 139//78
f 137//2 223//2 225//2 141//2
f 135//6 222//6 223//6 137//6
f 227//10 226//10 228//10 229//10
f 222//81 226//81 227//81 223//81
f 224//80 228//80 226//80 222//80
f 225//79 229//79 228//79 224//79
f 251//82 253//82 239//82 235//82
f 248//119 250//119 238//119 234//119
f 249//1 251//1 235//1 146//1
f 252//10 253//10 241//10
f 250//120 252//120 241//120 238//120
f 238//121 241//121 237//121
f 236//86 240//86 252//86 250//86
f 240//10 239//10 253//10 252//10
f 233//122 237//122 251//122 249//122
f 232//88 236//88 250//88 248//88
f 237//123 241//123 253//123 251//123
f 131//124 233//124 249//124 246//124
f 128//125 132//125 247//125 245//125
f 127//126 131//126 246//126 244//126
f 132//2 232//2 248//2 247//2
f 121//127 127//127 244//127 230//127
f 124//128 128//128 245//128 243//128
f 122//129 242//129 243//129 125//129
f 118//130 121//130 230//130 231//130
